<svg width="40" height="40" viewBox="0 0 40 40" fill="none" xmlns="http://www.w3.org/2000/svg">
<g clip-path="url(#clip0_265_4474)">
<path d="M40 24.1667V25H36.6667V24.1667C36.6667 23.2483 35.9183 22.5 35 22.5H33.3333C32.415 22.5 31.6667 23.2483 31.6667 24.1667C31.6667 25 32.1667 25.7383 32.94 26.0483L36.63 27.5233C38.6767 28.3433 39.9983 30.2967 39.9983 32.5C39.9983 34.9717 38.1917 37.0167 35.8317 37.415V40H32.4983V37.415C30.1383 37.015 28.3317 34.9717 28.3317 32.5V31.6667H31.665V32.5C31.665 33.4183 32.4133 34.1667 33.3317 34.1667H34.9983C35.9167 34.1667 36.665 33.4183 36.665 32.5C36.665 31.6667 36.165 30.9283 35.3917 30.6183L31.7017 29.1433C29.655 28.3233 28.3333 26.37 28.3333 24.1667C28.3333 21.695 30.14 19.65 32.5 19.2517V16.6667H35.8333V19.2517C38.1933 19.6517 40 21.695 40 24.1667ZM11.8383 20.32L14.1667 31.665H11.6867L11.25 29.2083H7.90667L7.44833 31.665H5L7.28667 20.2767C7.45833 19.31 8.33333 18.3317 9.595 18.3317C10.8567 18.3317 11.6383 19.205 11.8383 20.3183V20.32ZM10.6233 26.6667L9.56 21.175L8.52 26.6667H10.6233ZM18.8333 18.3333C20.9483 18.3333 22.6667 20.0517 22.6667 22.1667V27.8333C22.6667 29.9483 20.9483 31.6667 18.8333 31.6667H15V18.3333H18.8333ZM18.8333 21C18.19 21 17.6667 21 17.6667 21V29.0033C17.6667 29.0033 18.19 29.0033 18.8333 29.0033C19.4767 29.0033 20 28.48 20 27.8367V22.17C20 21.5267 19.4767 21.0033 18.8333 21.0033V21ZM7.5 5C6.12 5 5 6.12 5 7.5C5 8.88 6.12 10 7.5 10C8.88 10 10 8.88 10 7.5C10 6.12 8.88 5 7.5 5ZM14.1667 5C12.7867 5 11.6667 6.12 11.6667 7.5C11.6667 8.88 12.7867 10 14.1667 10C15.5467 10 16.6667 8.88 16.6667 7.5C16.6667 6.12 15.5467 5 14.1667 5ZM40 5V15H3.33333V33.3333H25V36.6667H0V5C0 2.24333 2.24333 0 5 0H35C37.7567 0 40 2.24333 40 5ZM36.6667 5C36.6667 4.08167 35.9183 3.33333 35 3.33333H5C4.08167 3.33333 3.33333 4.08167 3.33333 5V11.6667H36.6667V5Z" fill="#80BD57"/>
</g>
<defs>
<clipPath id="clip0_265_4474">
<rect width="40" height="40" fill="white"/>
</clipPath>
</defs>
</svg>
