<svg width="36" height="36" viewBox="0 0 36 36" fill="none" xmlns="http://www.w3.org/2000/svg">
<g clip-path="url(#clip0_265_4442)">
<path d="M33.822 35.943L24.4935 26.6145C21.8205 28.8075 18.501 30 15 30C6.729 30 0 23.271 0 15C0 6.729 6.729 0 15 0C18.438 0 21.6 1.1745 24.132 3.1275L22.17 5.4C20.1675 3.9 17.6895 3 15 3C8.3835 3 3 8.3835 3 15C3 16.7505 3.3855 18.411 4.0635 19.911L11.8905 10.518L17.1615 15.789L30.3555 0.51L32.6265 2.472L17.322 20.193L12.093 14.964L5.7255 22.605C7.9275 25.287 11.268 27.0015 15 27.0015C18.2055 27.0015 21.219 25.7535 23.4855 23.487C25.752 21.2205 27 18.207 27 15.0015C27 14.55 26.97 14.1075 26.922 13.6695L29.3925 10.809C29.781 12.141 30 13.5465 30 15.003C30 18.504 28.8075 21.8235 26.6145 24.4965L35.943 33.825L33.822 35.946V35.943Z" fill="#334699"/>
</g>
<defs>
<clipPath id="clip0_265_4442">
<rect width="36" height="36" fill="white"/>
</clipPath>
</defs>
</svg>
