<svg width="174" height="52" viewBox="0 0 174 52" fill="none" xmlns="http://www.w3.org/2000/svg">
<rect width="174" height="52" rx="26" fill="white"/>
<path d="M48.883 24.9256C48.8552 21.6187 51.6043 20.0068 51.7323 19.9347C50.1741 17.6747 47.7589 17.3645 46.9074 17.3424C44.8763 17.1319 42.9118 18.55 41.8767 18.55C40.8249 18.55 39.2333 17.3645 37.5138 17.3978C35.3045 17.431 33.2399 18.7051 32.1102 20.677C29.7729 24.704 31.5147 30.6199 33.7574 33.877C34.8759 35.4723 36.1838 37.2504 37.8978 37.1894C39.5728 37.1229 40.2017 36.1259 42.2217 36.1259C44.2251 36.1259 44.815 37.1894 46.5624 37.1506C48.3599 37.1229 49.4952 35.5498 50.5748 33.9434C51.8714 32.1155 52.389 30.3152 52.4112 30.2266C52.3667 30.1989 48.9164 28.8861 48.883 24.9256ZM45.583 15.1987C46.4845 14.0743 47.1022 12.551 46.9297 11C45.6275 11.0554 43.9914 11.8973 43.0565 12.9941C42.2273 13.9635 41.4816 15.5477 41.6764 17.0377C43.1344 17.143 44.6425 16.301 45.583 15.1987Z" fill="#060606"/>
<path d="M73.1573 36.9514H70.8144L69.5289 32.941H65.0713L63.8471 36.9514H61.5654L65.984 23.2916H68.7108L73.1573 36.9514ZM69.1449 31.257L67.9818 27.6898C67.8594 27.3242 67.6257 26.4656 67.2918 25.1141H67.2528C67.1193 25.6957 66.8967 26.5543 66.6017 27.6898L65.4609 31.257H69.1449ZM84.499 31.9051C84.499 33.578 84.0424 34.9019 83.1298 35.8768C82.3114 36.7409 81.2932 37.1729 80.08 37.1729C78.7666 37.1729 77.8264 36.7076 77.2534 35.777V40.9452H75.055V30.3375C75.055 29.2851 75.0274 28.2049 74.9716 27.1026H76.9078L77.0308 28.6647H77.0692C77.8042 27.4904 78.9172 26.8977 80.4082 26.8977C81.577 26.8977 82.5508 27.3575 83.3302 28.277C84.109 29.1965 84.499 30.4096 84.499 31.9051ZM82.2616 31.9882C82.2616 31.03 82.0444 30.2379 81.6106 29.6175C81.1372 28.9694 80.4976 28.6481 79.696 28.6481C79.1566 28.6481 78.661 28.8309 78.2212 29.1854C77.782 29.5455 77.4922 30.0163 77.359 30.5923C77.2978 30.8084 77.2642 31.0355 77.2588 31.257V32.9022C77.2588 33.6168 77.4814 34.2205 77.9212 34.7191C78.3604 35.2121 78.934 35.4613 79.6402 35.4613C80.4694 35.4613 81.115 35.14 81.577 34.5086C82.0276 33.8661 82.2616 33.0296 82.2616 31.9882ZM95.8846 31.9051C95.8846 33.578 95.4286 34.9019 94.5154 35.8768C93.6976 36.7409 92.6794 37.1729 91.4662 37.1729C90.1528 37.1729 89.212 36.7076 88.639 35.777V40.9452H86.4406V30.3375C86.4406 29.2851 86.413 28.2049 86.3572 27.1026H88.294L88.4164 28.6647H88.4554C89.1898 27.4904 90.3028 26.8977 91.7944 26.8977C92.9632 26.8977 93.937 27.3575 94.7158 28.277C95.4898 29.1965 95.8846 30.4096 95.8846 31.9051ZM93.6418 31.9882C93.6418 31.03 93.4252 30.2379 92.9908 29.6175C92.518 28.9694 91.8778 28.6481 91.0768 28.6481C90.5368 28.6481 90.0412 28.8309 89.596 29.1854C89.1568 29.5455 88.867 30.0163 88.7338 30.5923C88.6666 30.8638 88.6282 31.0853 88.6282 31.257V32.9022C88.6282 33.6168 88.8508 34.2205 89.29 34.7191C89.7298 35.2121 90.3028 35.4613 91.0156 35.4613C91.8442 35.4613 92.4898 35.14 92.9518 34.5086C93.4138 33.8661 93.6418 33.0296 93.6418 31.9882ZM108.612 33.1238C108.612 34.287 108.206 35.2342 107.393 35.9599C106.503 36.7575 105.251 37.1563 103.653 37.1563C102.179 37.1563 100.994 36.8738 100.097 36.3033L100.604 34.4809C101.567 35.0514 102.629 35.3339 103.781 35.3339C104.61 35.3339 105.256 35.1456 105.718 34.7744C106.18 34.4033 106.413 33.9048 106.413 33.2844C106.413 32.7305 106.219 32.2652 105.84 31.883C105.462 31.5063 104.833 31.1518 103.949 30.8306C101.544 29.9387 100.342 28.6315 100.342 26.9199C100.342 25.8009 100.765 24.8814 101.616 24.1669C102.462 23.4523 103.587 23.0923 104.989 23.0923C106.236 23.0923 107.276 23.3083 108.105 23.7403L107.555 25.524C106.775 25.103 105.902 24.898 104.916 24.898C104.143 24.898 103.531 25.0864 103.097 25.463C102.729 25.8009 102.546 26.2109 102.546 26.6983C102.546 27.2356 102.758 27.6843 103.181 28.0332C103.548 28.3545 104.21 28.709 105.173 29.0857C106.352 29.5621 107.22 30.1104 107.777 30.7475C108.333 31.3845 108.612 32.1766 108.612 33.1238ZM115.902 28.7478H113.475V33.5281C113.475 34.7468 113.904 35.3505 114.761 35.3505C115.156 35.3505 115.479 35.3173 115.74 35.2508L115.802 36.9126C115.368 37.0733 114.8 37.1563 114.093 37.1563C113.225 37.1563 112.546 36.8904 112.056 36.3642C111.567 35.838 111.322 34.9517 111.322 33.711V28.7478H109.881V27.1082H111.322V25.3024L113.481 24.6543V27.1082H115.907L115.902 28.7478ZM126.815 31.9494C126.815 33.4617 126.381 34.708 125.513 35.6774C124.605 36.6799 123.398 37.1785 121.89 37.1785C120.437 37.1785 119.28 36.6966 118.417 35.7438C117.555 34.7855 117.126 33.5725 117.126 32.1157C117.126 30.5868 117.572 29.3405 118.462 28.3656C119.352 27.3907 120.549 26.9088 122.057 26.9088C123.509 26.9088 124.678 27.3907 125.557 28.349C126.392 29.274 126.815 30.476 126.815 31.9494ZM124.533 31.9993C124.533 31.0964 124.338 30.3209 123.943 29.6784C123.482 28.8973 122.825 28.5041 121.968 28.5041C121.088 28.5041 120.41 28.8973 119.953 29.6784C119.558 30.3264 119.363 31.113 119.363 32.0436C119.363 32.9465 119.558 33.722 119.953 34.3701C120.426 35.1511 121.094 35.5444 121.951 35.5444C122.792 35.5444 123.448 35.1456 123.927 34.3535C124.333 33.6832 124.533 32.9022 124.533 31.9993ZM133.966 29.0303C133.737 28.9915 133.504 28.9694 133.27 28.9694C132.497 28.9694 131.901 29.2574 131.478 29.839C131.111 30.3541 130.928 31.0023 130.928 31.7833V36.9514H128.729V30.2046C128.729 29.1688 128.712 28.1385 128.668 27.1026H130.583L130.66 28.986H130.721C130.955 28.3379 131.317 27.8172 131.823 27.4239C132.279 27.0805 132.842 26.8977 133.415 26.8977C133.621 26.8977 133.799 26.9143 133.966 26.9365V29.0303ZM143.799 31.5617C143.805 31.8941 143.777 32.2264 143.721 32.5532H137.121C137.144 33.5281 137.466 34.2704 138.078 34.7855C138.635 35.2453 139.353 35.4724 140.238 35.4724C141.217 35.4724 142.107 35.3173 142.909 35.0071L143.254 36.5248C142.319 36.9292 141.212 37.1342 139.937 37.1342C138.401 37.1342 137.199 36.6855 136.32 35.7882C135.446 34.8908 135.006 33.6832 135.006 32.171C135.006 30.6865 135.413 29.4513 136.231 28.4653C137.082 27.4128 138.24 26.8866 139.692 26.8866C141.117 26.8866 142.196 27.4128 142.931 28.4653C143.504 29.3017 143.799 30.332 143.799 31.5617ZM141.701 30.9967C141.718 30.3487 141.573 29.7892 141.273 29.3128C140.894 28.7035 140.304 28.3988 139.52 28.3988C138.802 28.3988 138.218 28.6979 137.766 29.2906C137.399 29.7615 137.183 30.332 137.115 30.9912L141.701 30.9967Z" fill="#060606"/>
<path d="M64.437 18.4672C63.8248 18.4672 63.2962 18.4395 62.8565 18.3897V11.7814C63.4743 11.6872 64.0975 11.6373 64.7208 11.6429C67.2417 11.6429 68.4048 12.8781 68.4048 14.8889C68.3992 17.2098 67.0303 18.4672 64.437 18.4672ZM64.8098 12.4904C64.4704 12.4904 64.181 12.5126 63.9417 12.5624V17.581C64.0697 17.6031 64.3201 17.6086 64.6707 17.6086C66.3235 17.6086 67.264 16.6725 67.264 14.9221C67.2584 13.3545 66.407 12.4904 64.8098 12.4904ZM72.022 18.517C70.603 18.517 69.6792 17.4591 69.6792 16.0244C69.6792 14.5288 70.6197 13.4653 72.1 13.4653C73.5023 13.4653 74.443 14.4734 74.443 15.9468C74.443 17.4591 73.4745 18.517 72.022 18.517ZM72.061 14.2519C71.2819 14.2519 70.7811 14.9775 70.7811 15.9967C70.7811 16.9938 71.293 17.7194 72.0499 17.7194C72.8123 17.7194 73.3187 16.9439 73.3187 15.9746C73.3242 14.9886 72.8234 14.2519 72.061 14.2519ZM82.5454 13.565L81.0262 18.4063H80.0356L79.4068 16.3069C79.2508 15.7917 79.1176 15.2711 79.0174 14.7449H78.9952C78.9172 15.2711 78.7666 15.8029 78.6052 16.3069L77.9374 18.4063H76.936L75.5056 13.565H76.6186L77.1694 15.8638C77.2978 16.4121 77.4088 16.9273 77.4982 17.4203H77.5204C77.5984 17.0104 77.7316 16.5063 77.9212 15.8749L78.6112 13.565H79.4902L80.1526 15.825C80.314 16.3734 80.4418 16.9107 80.542 17.4203H80.5696C80.6422 16.9217 80.7478 16.3955 80.8984 15.825L81.4882 13.565H82.5454ZM88.1494 18.4063H87.07V15.6256C87.07 14.767 86.7412 14.3405 86.0902 14.3405C85.4506 14.3405 85.0108 14.8889 85.0108 15.5259V18.4063H83.9314V14.9498C83.9314 14.5233 83.92 14.0636 83.8924 13.565H84.844L84.8938 14.3128H84.9214C85.2112 13.7977 85.801 13.4653 86.4634 13.4653C87.4816 13.4653 88.1548 14.2408 88.1548 15.5093L88.1494 18.4063ZM91.1266 18.4063H90.0472V11.3438H91.1266V18.4063ZM95.0722 18.517C93.6532 18.517 92.7292 17.4591 92.7292 16.0244C92.7292 14.5288 93.67 13.4653 95.1502 13.4653C96.5524 13.4653 97.4932 14.4734 97.4932 15.9468C97.4932 17.4591 96.5194 18.517 95.0722 18.517ZM95.1112 14.2519C94.3318 14.2519 93.8314 14.9775 93.8314 15.9967C93.8314 16.9938 94.3432 17.7194 95.0998 17.7194C95.8624 17.7194 96.3688 16.9439 96.3688 15.9746C96.3688 14.9886 95.8738 14.2519 95.1112 14.2519ZM101.756 18.4063L101.678 17.8468H101.65C101.322 18.2955 100.838 18.5115 100.226 18.5115C99.3514 18.5115 98.734 17.9022 98.734 17.088C98.734 15.8915 99.7744 15.2766 101.577 15.2766V15.188C101.577 14.551 101.238 14.2297 100.571 14.2297C100.092 14.2297 99.6688 14.3516 99.3016 14.5898L99.0844 13.8808C99.5356 13.6038 100.097 13.4598 100.754 13.4598C102.023 13.4598 102.668 14.1245 102.668 15.4594V17.2431C102.668 17.7305 102.69 18.1127 102.741 18.4007L101.756 18.4063ZM101.606 15.9967C100.403 15.9967 99.8026 16.2847 99.8026 16.9716C99.8026 17.4812 100.114 17.7305 100.542 17.7305C101.094 17.7305 101.606 17.315 101.606 16.7445V15.9967ZM107.905 18.4063L107.855 17.6308H107.827C107.516 18.218 106.992 18.517 106.263 18.517C105.089 18.517 104.221 17.4923 104.221 16.0466C104.221 14.5343 105.123 13.4653 106.352 13.4653C107.004 13.4653 107.465 13.6813 107.721 14.1245H107.744V11.3438H108.823V17.099C108.823 17.5643 108.834 18.0074 108.862 18.4007H107.905V18.4063ZM107.749 15.5591C107.749 14.8833 107.298 14.3017 106.608 14.3017C105.807 14.3017 105.317 15.0108 105.317 16.0023C105.317 16.9772 105.824 17.6474 106.586 17.6474C107.265 17.6474 107.749 17.0602 107.749 16.3623V15.5591ZM115.691 18.517C114.272 18.517 113.348 17.4591 113.348 16.0244C113.348 14.5288 114.288 13.4653 115.769 13.4653C117.171 13.4653 118.111 14.4734 118.111 15.9468C118.111 17.4591 117.143 18.517 115.691 18.517ZM115.73 14.2519C114.95 14.2519 114.449 14.9775 114.449 15.9967C114.449 16.9938 114.962 17.7194 115.718 17.7194C116.481 17.7194 116.987 16.9439 116.987 15.9746C116.993 14.9886 116.492 14.2519 115.73 14.2519ZM123.927 18.4063H122.847V15.6256C122.847 14.767 122.519 14.3405 121.868 14.3405C121.227 14.3405 120.788 14.8889 120.788 15.5259V18.4063H119.708V14.9498C119.708 14.5233 119.697 14.0636 119.669 13.565H120.621L120.671 14.3128H120.699C120.989 13.7977 121.578 13.4653 122.24 13.4653C123.259 13.4653 123.932 14.2408 123.932 15.5093V18.4063H123.927ZM131.195 14.3737H130.004V16.7223C130.004 17.3206 130.209 17.6197 130.632 17.6197C130.821 17.6197 130.983 17.5976 131.111 17.5699L131.139 18.3841C130.928 18.4617 130.649 18.506 130.299 18.506C129.447 18.506 128.935 18.0407 128.935 16.811V14.3682H128.223V13.5594H128.935V12.6732L129.998 12.3519V13.5594H131.189L131.195 14.3737ZM136.921 18.4063H135.841V15.6478C135.841 14.7836 135.513 14.346 134.862 14.346C134.3 14.346 133.782 14.7227 133.782 15.4927V18.4118H132.702V11.3438H133.782V14.2519H133.805C134.144 13.7257 134.639 13.4653 135.268 13.4653C136.298 13.4653 136.926 14.2629 136.926 15.5259L136.921 18.4063ZM142.781 16.246H139.536C139.559 17.16 140.165 17.6806 141.067 17.6806C141.545 17.6806 141.99 17.6031 142.38 17.4535L142.547 18.2013C142.085 18.4007 141.545 18.5004 140.916 18.5004C139.397 18.5004 138.496 17.5421 138.496 16.0632C138.496 14.5787 139.419 13.4653 140.794 13.4653C142.035 13.4653 142.814 14.3793 142.814 15.7641C142.825 15.9192 142.814 16.0853 142.781 16.246ZM141.79 15.4761C141.79 14.7282 141.412 14.202 140.722 14.202C140.099 14.202 139.609 14.7393 139.542 15.4761H141.79Z" fill="#060606"/>
</svg>
