<svg width="36" height="36" viewBox="0 0 36 36" fill="none" xmlns="http://www.w3.org/2000/svg">
<g clip-path="url(#clip0_265_4446)">
<path d="M27.522 10.845C25.5555 6.1185 20.9295 3 15.75 3C8.7195 3 3 8.7195 3 15.75C3 16.5765 3.0795 17.3955 3.2355 18.1995C1.215 19.7475 0 22.1685 0 24.75C0 29.298 3.3645 33 7.5 33H24.75C30.954 33 36 27.954 36 21.75C36 16.5495 32.484 12.0945 27.522 10.845ZM24.75 30H7.5C5.019 30 3 27.645 3 24.75C3 22.8585 4.026 21.105 5.676 20.1735L6.708 19.59L6.3795 18.45C6.1275 17.577 6 16.668 6 15.7485C6 10.3725 10.374 5.9985 15.75 5.9985C19.935 5.9985 23.6475 8.6595 24.9885 12.621L25.275 13.467L26.1555 13.6185C30.1215 14.2995 33 17.718 33 21.7485C33 26.2965 29.2995 30 24.75 30ZM22.9395 19.0605L25.0605 21.1815L20.121 26.121C19.536 26.706 18.768 26.9985 18 26.9985C17.232 26.9985 16.464 26.706 15.879 26.121L10.9395 21.1815L13.0605 19.0605L16.5 22.5V13.5H19.5V22.5L22.9395 19.0605Z" fill="#334699"/>
</g>
<defs>
<clipPath id="clip0_265_4446">
<rect width="36" height="36" fill="white"/>
</clipPath>
</defs>
</svg>
