<svg width="40" height="40" viewBox="0 0 40 40" fill="none" xmlns="http://www.w3.org/2000/svg">
<g clip-path="url(#clip0_252_2794)">
<path d="M35 1.6665H5C3.67392 1.6665 2.40215 2.19329 1.46447 3.13097C0.526784 4.06865 0 5.34042 0 6.6665L0 38.3332H40V6.6665C40 5.34042 39.4732 4.06865 38.5355 3.13097C37.5979 2.19329 36.3261 1.6665 35 1.6665ZM5 4.99984H35C35.442 4.99984 35.866 5.17543 36.1785 5.48799C36.4911 5.80055 36.6667 6.22448 36.6667 6.6665V7.77817L23.5367 20.9098C22.5974 21.8454 21.3257 22.3706 20 22.3706C18.6743 22.3706 17.4026 21.8454 16.4633 20.9098L3.33333 7.77817V6.6665C3.33333 6.22448 3.50893 5.80055 3.82149 5.48799C4.13405 5.17543 4.55797 4.99984 5 4.99984ZM3.33333 34.9998V12.4998L14.1067 23.2665C15.671 24.8269 17.7904 25.7032 20 25.7032C22.2096 25.7032 24.329 24.8269 25.8933 23.2665L36.6667 12.4998V34.9998H3.33333Z" fill="white"/>
</g>
<defs>
<clipPath id="clip0_252_2794">
<rect width="40" height="40" fill="white"/>
</clipPath>
</defs>
</svg>
