<svg width="40" height="40" viewBox="0 0 40 40" fill="none" xmlns="http://www.w3.org/2000/svg">
<g clip-path="url(#clip0_265_4486)">
<path d="M15 20C13.0222 20 11.0888 19.4135 9.4443 18.3147C7.79981 17.2159 6.51809 15.6541 5.76121 13.8268C5.00433 11.9996 4.8063 9.98891 5.19215 8.0491C5.578 6.10929 6.53041 4.32746 7.92894 2.92894C9.32746 1.53041 11.1093 0.578004 13.0491 0.192152C14.9889 -0.193701 16.9996 0.00433286 18.8268 0.761209C20.6541 1.51809 22.2159 2.79981 23.3147 4.4443C24.4135 6.08879 25 8.02219 25 10C24.9974 12.6514 23.9429 15.1934 22.0681 17.0681C20.1934 18.9429 17.6514 19.9974 15 20ZM15 3.33334C13.6815 3.33334 12.3925 3.72433 11.2962 4.45687C10.1999 5.18942 9.34539 6.23061 8.84081 7.44878C8.33622 8.66696 8.2042 10.0074 8.46144 11.3006C8.71867 12.5938 9.35361 13.7817 10.286 14.7141C11.2183 15.6464 12.4062 16.2813 13.6994 16.5386C14.9926 16.7958 16.3331 16.6638 17.5512 16.1592C18.7694 15.6546 19.8106 14.8001 20.5431 13.7038C21.2757 12.6075 21.6667 11.3185 21.6667 10C21.6667 8.23189 20.9643 6.5362 19.7141 5.28596C18.4638 4.03572 16.7681 3.33334 15 3.33334Z" fill="#80BD57"/>
<path d="M30 40H26.6667V31.595C26.6649 30.2884 26.1451 29.0359 25.2212 28.1121C24.2974 27.1882 23.0449 26.6684 21.7383 26.6666H8.26167C6.95513 26.6684 5.70262 27.1882 4.77876 28.1121C3.8549 29.0359 3.3351 30.2884 3.33333 31.595V40H0V31.595C0.00264638 29.4047 0.873919 27.3048 2.42271 25.756C3.9715 24.2072 6.07135 23.336 8.26167 23.3333H21.7383C23.9287 23.336 26.0285 24.2072 27.5773 25.756C29.1261 27.3048 29.9974 29.4047 30 31.595V40Z" fill="#80BD57"/>
<path d="M36.6667 13.125C35.7392 13.1712 34.8677 13.5829 34.243 14.2701C33.6183 14.9573 33.2912 15.8639 33.3334 16.7917C33.3755 15.8639 33.0484 14.9573 32.4237 14.2701C31.799 13.5829 30.9276 13.1712 30 13.125C29.0725 13.1712 28.201 13.5829 27.5763 14.2701C26.9516 14.9573 26.6246 15.8639 26.6667 16.7917C26.6667 20.625 33.3334 25.3467 33.3334 25.3467C33.3334 25.3467 40 20.6317 40 16.7917C40.0422 15.8639 39.7151 14.9573 39.0904 14.2701C38.4657 13.5829 37.5942 13.1712 36.6667 13.125Z" fill="#80BD57"/>
</g>
<defs>
<clipPath id="clip0_265_4486">
<rect width="40" height="40" fill="white"/>
</clipPath>
</defs>
</svg>
