<svg width="40" height="40" viewBox="0 0 40 40" fill="none" xmlns="http://www.w3.org/2000/svg">
<g clip-path="url(#clip0_265_4478)">
<path d="M35 8.33334H30.9417C31.2767 7.73668 31.5117 7.08334 31.61 6.38501C31.8217 4.90501 31.4433 3.43334 30.5483 2.23834C29.6517 1.04168 28.3433 0.266677 26.8633 0.0550099C25.3883 -0.153323 23.9117 0.221677 22.7167 1.11668C21.5567 1.98668 20.6733 3.11001 20 4.25334C19.3267 3.11168 18.4433 1.98668 17.2833 1.11834C16.0883 0.221677 14.615 -0.151657 13.1367 0.0566766C11.6567 0.268343 10.3483 1.04334 9.45333 2.23834C8.55667 3.43334 8.17833 4.90668 8.39 6.38501C8.49 7.08334 8.72333 7.74001 9.055 8.33334H5C2.24333 8.33334 0 10.5767 0 13.3333V21.6667H3.33333V40H18.9L20.035 36.6667H6.66667V21.6667H24.9967L25.9783 18.3333H3.33333V13.3333C3.33333 12.415 4.08 11.6667 5 11.6667H35C35.92 11.6667 36.6667 12.415 36.6667 13.3333V18.3333H34.0667L35.0467 21.6667H40V13.3333C40 10.5767 37.7567 8.33334 35 8.33334ZM24.715 3.78501C25.1967 3.42334 25.795 3.26834 26.3917 3.35668C26.9883 3.44168 27.5183 3.75501 27.8817 4.23834C28.245 4.72168 28.3967 5.31668 28.3117 5.91334C28.2267 6.51168 27.9133 7.04001 27.3767 7.44334C27.315 7.49168 26.76 7.90668 25.68 8.33168H21.8333C22.2033 7.07001 23.0833 5.00834 24.7167 3.78334L24.715 3.78501ZM12.57 7.40334C12.0883 7.04001 11.7733 6.51168 11.69 5.91334C11.605 5.31668 11.7567 4.72168 12.1217 4.23668C12.4833 3.75334 13.0117 3.44001 13.61 3.35501C14.2 3.26834 14.8033 3.42168 15.2867 3.78501C16.92 5.01001 17.7983 7.07001 18.17 8.33334H14.3233C13.2433 7.90834 12.6833 7.49001 12.5733 7.40334H12.57ZM32.79 26.6667H40V28.195L34.5 31.3767L36.71 38.0917L35.46 38.9633L30.025 34.7617L24.5667 38.9817L23.365 38.0767L25.5383 31.2833L20 28.2033V26.6667H27.25L29.2133 19.1667H30.83L32.79 26.6667Z" fill="#80BD57"/>
</g>
<defs>
<clipPath id="clip0_265_4478">
<rect width="40" height="40" fill="white"/>
</clipPath>
</defs>
</svg>
