<svg width="174" height="52" viewBox="0 0 174 52" fill="none" xmlns="http://www.w3.org/2000/svg">
<rect width="174" height="52" rx="26" fill="white"/>
<path d="M65.9699 15.6637C65.9699 16.4866 65.7632 17.2066 65.2466 17.7209C64.6265 18.338 63.9032 18.6466 62.9732 18.6466C62.0432 18.6466 61.3199 18.338 60.6999 17.7209C60.0799 17.1037 59.7699 16.3837 59.7699 15.458C59.7699 14.5323 60.0799 13.8124 60.6999 13.1952C61.3199 12.5781 62.0432 12.2695 62.9732 12.2695C63.3866 12.2695 63.7999 12.3724 64.2132 12.5781C64.6265 12.7838 64.9366 12.9895 65.1432 13.2981L64.6265 13.8123C64.2132 13.2981 63.6965 13.0924 62.9732 13.0924C62.3532 13.0924 61.7332 13.2981 61.3199 13.8123C60.8032 14.2238 60.5966 14.8409 60.5966 15.5609C60.5966 16.2809 60.8032 16.898 61.3199 17.3094C61.8365 17.7209 62.3532 18.0294 62.9732 18.0294C63.6965 18.0294 64.2132 17.8237 64.7299 17.3094C65.0399 17.0008 65.2466 16.5894 65.2466 16.0752H62.9732V15.3552H65.9699C65.9699 15.3552 65.9699 15.458 65.9699 15.6637Z" fill="#060606" stroke="#060606" stroke-width="0.2" stroke-miterlimit="10"/>
<path d="M70.7237 13.0924H67.9337V15.0466H70.517V15.7666H67.9337V17.7209H70.7237V18.4408H67.1071V12.2695H70.7237V13.0924Z" fill="#060606" stroke="#060606" stroke-width="0.2" stroke-miterlimit="10"/>
<path d="M74.1338 18.4408H73.3069V12.9895H71.5502V12.2695H75.89V12.9895H74.1338V18.4408Z" fill="#060606" stroke="#060606" stroke-width="0.2" stroke-miterlimit="10"/>
<path d="M78.887 18.4408V12.2695H79.7132V18.4408H78.887Z" fill="#060606" stroke="#060606" stroke-width="0.2" stroke-miterlimit="10"/>
<path d="M83.2268 18.4408H82.4006V12.9895H80.6438V12.2695H84.8804V12.9895H83.1236V18.4408H83.2268Z" fill="#060606" stroke="#060606" stroke-width="0.2" stroke-miterlimit="10"/>
<path d="M93.0434 17.7209C92.4236 18.338 91.7 18.6466 90.77 18.6466C89.84 18.6466 89.117 18.338 88.4966 17.7209C87.8768 17.1037 87.5666 16.3837 87.5666 15.458C87.5666 14.5323 87.8768 13.8124 88.4966 13.1952C89.117 12.5781 89.84 12.2695 90.77 12.2695C91.7 12.2695 92.4236 12.5781 93.0434 13.1952C93.6632 13.8124 93.9734 14.5323 93.9734 15.458C93.9734 16.2809 93.6632 17.1037 93.0434 17.7209ZM89.117 17.2066C89.5304 17.618 90.1502 17.9265 90.77 17.9265C91.3904 17.9265 92.0102 17.7209 92.4236 17.2066C92.837 16.7952 93.1466 16.1781 93.1466 15.458C93.1466 14.738 92.9402 14.1209 92.4236 13.7095C92.0102 13.2981 91.3904 12.9895 90.77 12.9895C90.1502 12.9895 89.5304 13.1952 89.117 13.7095C88.7036 14.1209 88.3934 14.738 88.3934 15.458C88.3934 16.0752 88.6004 16.6923 89.117 17.2066Z" fill="#060606" stroke="#060606" stroke-width="0.2" stroke-miterlimit="10"/>
<path d="M95.1104 18.4408V12.2695H96.0404L99.0368 17.1037V15.8695V12.2695H99.8636V18.4408H99.0368L95.8334 13.401V14.6352V18.4408H95.1104Z" fill="#060606" stroke="#060606" stroke-width="0.2" stroke-miterlimit="10"/>
<path d="M87.3596 27.4919C84.8798 27.4919 82.9166 29.3433 82.9166 31.9147C82.9166 34.3832 84.8798 36.3374 87.3596 36.3374C89.8394 36.3374 91.8032 34.486 91.8032 31.9147C91.8032 29.3433 89.8394 27.4919 87.3596 27.4919ZM87.3596 34.486C86.0162 34.486 84.8798 33.3546 84.8798 31.8118C84.8798 30.269 86.0162 29.1376 87.3596 29.1376C88.703 29.1376 89.8394 30.1661 89.8394 31.8118C89.8394 33.4575 88.703 34.486 87.3596 34.486ZM77.7494 27.4919C75.2696 27.4919 73.3063 29.3433 73.3063 31.9147C73.3063 34.3832 75.2696 36.3374 77.7494 36.3374C80.2298 36.3374 82.193 34.486 82.193 31.9147C82.193 29.3433 80.2298 27.4919 77.7494 27.4919ZM77.7494 34.486C76.4066 34.486 75.2696 33.3546 75.2696 31.8118C75.2696 30.269 76.4066 29.1376 77.7494 29.1376C79.0928 29.1376 80.2298 30.1661 80.2298 31.8118C80.2298 33.4575 79.0928 34.486 77.7494 34.486ZM66.2797 28.829V30.6804H70.723C70.6197 31.709 70.2063 32.5318 69.6897 33.046C69.0697 33.6631 68.0363 34.3832 66.2797 34.3832C63.4897 34.3832 61.423 32.2232 61.423 29.4462C61.423 26.6691 63.593 24.5091 66.2797 24.5091C67.7263 24.5091 68.863 25.1262 69.6897 25.8462L71.033 24.5091C69.8963 23.4806 68.4496 22.6577 66.383 22.6577C62.663 22.6577 59.4597 25.7434 59.4597 29.4462C59.4597 33.1489 62.663 36.2345 66.383 36.2345C68.4496 36.2345 69.8963 35.6174 71.1363 34.2803C72.3763 33.046 72.7896 31.2975 72.7896 29.9604C72.7896 29.549 72.7896 29.1376 72.6863 28.829H66.2797ZM113.193 30.269C112.78 29.2404 111.746 27.4919 109.473 27.4919C107.2 27.4919 105.34 29.2404 105.34 31.9147C105.34 34.3832 107.2 36.3374 109.68 36.3374C111.643 36.3374 112.883 35.1032 113.296 34.3832L111.85 33.3546C111.333 34.0746 110.713 34.5888 109.68 34.5888C108.646 34.5888 108.026 34.1775 107.509 33.2518L113.4 30.7832L113.193 30.269ZM107.2 31.709C107.2 30.0633 108.543 29.1376 109.473 29.1376C110.196 29.1376 110.92 29.549 111.126 30.0633L107.2 31.709ZM102.343 35.926H104.306V23.0691H102.343V35.926ZM99.2432 28.4176C98.726 27.9033 97.8998 27.389 96.866 27.389C94.6964 27.389 92.6294 29.3433 92.6294 31.8118C92.6294 34.2803 94.5932 36.1317 96.866 36.1317C97.8998 36.1317 98.726 35.6174 99.1394 35.1032H99.2432V35.7203C99.2432 37.3659 98.3132 38.2916 96.866 38.2916C95.7296 38.2916 94.9028 37.4688 94.6964 36.7488L93.0428 37.4688C93.5594 38.6002 94.7996 40.0402 96.9698 40.0402C99.2432 40.0402 101.103 38.703 101.103 35.5146V27.6976H99.2432V28.4176ZM96.9698 34.486C95.6264 34.486 94.4894 33.3546 94.4894 31.8118C94.4894 30.269 95.6264 29.1376 96.9698 29.1376C98.3132 29.1376 99.3464 30.269 99.3464 31.8118C99.3464 33.3546 98.3132 34.486 96.9698 34.486ZM122.183 23.0691H117.533V35.926H119.496V31.0918H122.183C124.353 31.0918 126.42 29.549 126.42 27.0805C126.42 24.6119 124.353 23.0691 122.183 23.0691ZM122.286 29.3433H119.496V24.9205H122.286C123.733 24.9205 124.56 26.1548 124.56 27.0805C124.456 28.109 123.63 29.3433 122.286 29.3433ZM134.17 27.4919C132.723 27.4919 131.276 28.109 130.759 29.4462L132.516 30.1661C132.93 29.4462 133.549 29.2404 134.273 29.2404C135.306 29.2404 136.236 29.8576 136.339 30.8861V30.989C136.03 30.7832 135.203 30.4747 134.376 30.4747C132.516 30.4747 130.656 31.5032 130.656 33.3546C130.656 35.1032 132.206 36.2345 133.86 36.2345C135.203 36.2345 135.823 35.6174 136.339 35.0003H136.443V36.0289H138.303V31.0918C138.096 28.7261 136.339 27.4919 134.17 27.4919ZM133.963 34.486C133.343 34.486 132.413 34.1775 132.413 33.3546C132.413 32.3261 133.549 32.0175 134.479 32.0175C135.306 32.0175 135.72 32.2232 136.236 32.4289C136.03 33.6632 134.996 34.486 133.963 34.486ZM144.813 27.6976L142.643 33.2518H142.54L140.266 27.6976H138.199L141.61 35.5146L139.646 39.8345H141.61L146.88 27.6976H144.813ZM127.453 35.926H129.416V23.0691H127.453V35.926Z" fill="#060606"/>
<path d="M27.22 38.4976C26.8066 38.2919 26.6 37.7777 26.6 37.2634C26.6 37.1605 26.6 36.9548 26.6 36.852C26.6 29.2407 26.6 21.6294 26.6 14.121C26.6 13.7096 26.7033 13.4011 26.8066 12.9897C26.91 12.7839 27.1166 12.5782 27.3233 12.3726C31.7666 16.7953 36.1066 21.218 40.4466 25.6408C36.0033 29.7549 31.6633 34.0749 27.22 38.4976Z" fill="#060606"/>
<path d="M44.7864 21.1149C43.5464 22.3491 42.203 23.5834 40.9631 24.9205C36.8297 20.7034 32.5931 16.4864 28.4597 12.2693C28.4597 12.2693 28.4597 12.1665 28.563 12.1665C33.9364 15.1493 39.3097 18.1321 44.7864 21.1149Z" fill="#060606"/>
<path d="M28.4597 38.4973C32.5931 34.3831 36.8297 30.269 40.9631 26.1548C42.0997 27.2862 43.3397 28.4176 44.6831 29.6518C39.3097 32.6346 33.9364 35.6174 28.563 38.4973H28.4597Z" fill="#060606"/>
<path d="M45.4068 29.2404C44.0635 28.0062 42.8235 26.7719 41.4802 25.5377C42.8235 24.2006 44.1668 22.8635 45.5101 21.5264C45.9235 21.7321 46.3368 21.9378 46.7501 22.2463C47.7835 22.8635 48.9202 23.3778 49.9535 23.9949C50.2635 24.0977 50.4701 24.3035 50.6768 24.612C51.0901 25.1262 51.0901 25.6406 50.6768 26.1548C50.4701 26.3605 50.2635 26.5663 49.9535 26.6691C48.5068 27.5948 46.9568 28.4177 45.4068 29.2404Z" fill="#060606"/>
</svg>
