<svg width="248" height="136" viewBox="0 0 248 136" fill="none" xmlns="http://www.w3.org/2000/svg">
<path d="M61.8562 50H71.8766C73.4269 50 74.5418 51.49 74.1044 52.9773L65.0209 83.861C64.7303 84.8492 63.8233 85.5279 62.7932 85.5279H57.1851C56.6779 85.5279 56.1847 85.3618 55.7808 85.0552L52.174 82.3165C51.4062 81.7335 51.0785 80.7367 51.3505 79.8119L59.6284 51.6669C59.9191 50.6786 60.8261 50 61.8562 50Z" fill="#334699"/>
<path d="M82.6716 50H92.6921C94.2423 50 95.3572 51.49 94.9198 52.9773L85.8363 83.861C85.5457 84.8492 84.6387 85.5279 83.6086 85.5279H78.0005C77.4933 85.5279 77.0001 85.3618 76.5962 85.0552L72.9894 82.3165C72.2216 81.7335 71.8939 80.7367 72.1659 79.8119L80.4439 51.6669C80.7345 50.6786 81.6415 50 82.6716 50Z" fill="url(#paint0_linear_0_26)"/>
<g filter="url(#filter0_d_0_26)">
<path fill-rule="evenodd" clip-rule="evenodd" d="M42.3236 50C40.7733 50 39.6584 51.49 40.0958 52.9773L47.7085 78.8604C48.8711 82.8133 52.499 85.5279 56.6194 85.5279H60.1189H62.7934C63.3853 85.5279 63.9366 85.3037 64.3537 84.9255L63.9845 83.6702L54.5717 51.6669C54.2811 50.6786 53.3741 50 52.344 50H42.3236Z" fill="url(#paint1_linear_0_26)"/>
</g>
<g filter="url(#filter1_d_0_26)">
<path fill-rule="evenodd" clip-rule="evenodd" d="M64.9948 50H61.8559C61.2326 50 60.6544 50.2485 60.2305 50.6637L68.5236 78.8604C69.6862 82.8133 73.3141 85.5279 77.4345 85.5279H80.934H83.6085C84.2004 85.5279 84.7518 85.3038 85.1688 84.9256L84.7996 83.6702L75.3868 51.6669C75.0962 50.6786 74.1892 50 73.1591 50H64.9948Z" fill="url(#paint2_linear_0_26)"/>
</g>
<path d="M105.084 58.0607H111.091L114.403 70.5895H114.693L118.661 58.0607H124.179L128.186 70.5895H128.469L131.736 58.0607H137.666L131.248 78.058H125.485L121.478 65.4457H121.189L117.182 78.058H111.503L105.084 58.0607Z" fill="#060606"/>
<path d="M152.06 75.9387H151.732C151.102 76.7029 150.349 77.3515 149.461 77.8974C148.574 78.4432 147.436 78.7129 146.046 78.7129C145.011 78.7129 144.04 78.5395 143.126 78.2056C142.213 77.8717 141.416 77.3965 140.734 76.7992C140.052 76.202 139.518 75.4764 139.139 74.6351C138.759 73.7939 138.566 72.8691 138.566 71.8609C138.566 70.8527 138.772 69.8959 139.177 69.0675C139.589 68.2391 140.161 67.5262 140.895 66.9226C141.628 66.3254 142.496 65.8694 143.493 65.5548C144.49 65.2401 145.57 65.086 146.741 65.086C148.047 65.086 149.127 65.1887 149.97 65.3942C150.812 65.5997 151.507 65.8116 152.053 66.0236V65.4135C152.053 64.3539 151.629 63.4741 150.786 62.7806C149.944 62.087 148.889 61.7402 147.641 61.7402C145.789 61.7402 144.22 62.5173 142.94 64.0649L139.055 61.4127C141.184 58.7477 144.085 57.412 147.764 57.412C150.87 57.412 153.243 58.1376 154.877 59.5954C156.51 61.0531 157.327 63.2044 157.327 66.0621V78.0643H152.053V75.9387H152.06ZM152.06 69.9408C151.43 69.639 150.786 69.4014 150.118 69.228C149.449 69.0482 148.722 68.9647 147.931 68.9647C146.651 68.9647 145.66 69.2473 144.966 69.7995C144.271 70.3582 143.924 71.0454 143.924 71.8609C143.924 72.6765 144.258 73.3315 144.927 73.8196C145.596 74.3076 146.361 74.5516 147.236 74.5516C147.944 74.5516 148.6 74.4232 149.198 74.1663C149.796 73.9095 150.31 73.5691 150.729 73.1453C151.153 72.7214 151.481 72.2334 151.713 71.6747C151.944 71.116 152.06 70.538 152.06 69.9408Z" fill="#060606"/>
<path d="M161.579 78.0644V48.839H166.937V78.0644H161.579Z" fill="#060606"/>
<path d="M171.516 78.0644V48.839H176.873V78.0644H171.516Z" fill="#060606"/>
<path d="M181.285 58.0607H186.315V60.4688H186.643C187.131 59.6276 187.897 58.9019 188.932 58.3047C189.968 57.7075 191.248 57.4056 192.772 57.4056C194.052 57.4056 195.274 57.6689 196.431 58.2019C197.589 58.7349 198.612 59.467 199.499 60.4046C200.387 61.3422 201.088 62.466 201.602 63.7696C202.117 65.0732 202.381 66.5053 202.381 68.0529C202.381 69.6005 202.123 71.0326 201.602 72.3362C201.082 73.6398 200.38 74.7636 199.499 75.7012C198.618 76.6388 197.589 77.3773 196.431 77.9039C195.274 78.4369 194.052 78.7002 192.772 78.7002C191.248 78.7002 189.961 78.3983 188.932 77.8011C187.897 77.2039 187.131 76.4847 186.643 75.637H186.315L186.643 78.4947V86.8622H181.285V58.0607ZM191.666 73.7811C192.373 73.7811 193.048 73.6462 193.692 73.3701C194.335 73.1004 194.901 72.7151 195.39 72.227C195.878 71.739 196.277 71.1418 196.573 70.4289C196.875 69.7226 197.023 68.9327 197.023 68.0593C197.023 67.186 196.875 66.4025 196.573 65.6897C196.271 64.9833 195.878 64.3861 195.39 63.8916C194.901 63.3971 194.335 63.0182 193.692 62.7485C193.048 62.4788 192.38 62.3375 191.666 62.3375C190.952 62.3375 190.283 62.466 189.64 62.7228C188.997 62.9797 188.431 63.3522 187.942 63.8467C187.453 64.3411 187.054 64.9384 186.758 65.6447C186.456 66.3511 186.308 67.1539 186.308 68.0529C186.308 68.9519 186.456 69.7547 186.758 70.4611C187.061 71.1674 187.453 71.7647 187.942 72.2591C188.431 72.7536 188.997 73.1261 189.64 73.3829C190.283 73.6398 190.952 73.7683 191.666 73.7683V73.7811Z" fill="#060606"/>
<path d="M215.296 57.412C216.852 57.412 218.274 57.6753 219.566 58.2083C220.859 58.7413 221.978 59.4734 222.917 60.4109C223.856 61.3485 224.596 62.4723 225.123 63.7759C225.657 65.0796 225.921 66.5116 225.921 68.0592C225.921 69.6069 225.657 71.0389 225.123 72.3426C224.589 73.6462 223.856 74.77 222.917 75.7075C221.978 76.6451 220.859 77.3836 219.566 77.9102C218.274 78.4432 216.846 78.7065 215.296 78.7065C213.746 78.7065 212.318 78.4432 211.025 77.9102C209.733 77.3772 208.613 76.6451 207.674 75.7075C206.735 74.77 205.996 73.6462 205.468 72.3426C204.935 71.0389 204.671 69.6069 204.671 68.0592C204.671 66.5116 204.935 65.0796 205.468 63.7759C206.002 62.4723 206.735 61.3485 207.674 60.4109C208.613 59.4734 209.733 58.7349 211.025 58.2083C212.318 57.6753 213.746 57.412 215.296 57.412ZM215.296 73.781C215.978 73.781 216.64 73.6526 217.277 73.3957C217.92 73.1388 218.486 72.7664 218.975 72.2719C219.464 71.7774 219.856 71.1866 220.139 70.4738C220.428 69.7674 220.57 68.9647 220.57 68.0657C220.57 67.1666 220.428 66.3639 220.139 65.6575C219.856 64.9511 219.464 64.3539 218.975 63.8594C218.486 63.3649 217.92 62.9989 217.277 62.7356C216.634 62.4787 215.978 62.3503 215.296 62.3503C214.614 62.3503 213.919 62.4787 213.296 62.7356C212.665 62.9925 212.112 63.3649 211.617 63.8594C211.122 64.3539 210.736 64.9511 210.453 65.6575C210.163 66.3639 210.022 67.1666 210.022 68.0657C210.022 68.9647 210.163 69.7674 210.453 70.4738C210.742 71.1802 211.128 71.7774 211.617 72.2719C212.106 72.7664 212.665 73.1388 213.296 73.3957C213.919 73.6526 214.588 73.781 215.296 73.781Z" fill="#060606"/>
<path d="M233.979 60.6743H234.307C234.931 59.6661 235.78 58.8698 236.841 58.2854C237.902 57.701 239.118 57.4056 240.481 57.4056C241.735 57.4056 242.841 57.6111 243.793 58.0157C244.745 58.4267 245.53 59.0047 246.141 59.7496C246.752 60.5009 247.215 61.3935 247.53 62.4403C247.845 63.487 248 64.6494 248 65.9273V78.0516H242.642V66.5823C242.642 65.1374 242.32 64.0714 241.684 63.3779C241.041 62.6843 240.108 62.3375 238.886 62.3375C238.153 62.3375 237.503 62.4917 236.944 62.8063C236.384 63.121 235.908 63.5384 235.516 64.0714C235.124 64.6044 234.821 65.2273 234.615 65.9466C234.41 66.6658 234.307 67.4364 234.307 68.252V78.0451H228.949V58.0478H233.979V60.6615V60.6743Z" fill="#060606"/>
<defs>
<filter id="filter0_d_0_26" x="-2.86102e-06" y="-3.8147e-06" width="124.354" height="135.528" filterUnits="userSpaceOnUse" color-interpolation-filters="sRGB">
<feFlood flood-opacity="0" result="BackgroundImageFix"/>
<feColorMatrix in="SourceAlpha" type="matrix" values="0 0 0 0 0 0 0 0 0 0 0 0 0 0 0 0 0 0 127 0" result="hardAlpha"/>
<feOffset dx="10"/>
<feGaussianBlur stdDeviation="25"/>
<feComposite in2="hardAlpha" operator="out"/>
<feColorMatrix type="matrix" values="0 0 0 0 0 0 0 0 0 0 0 0 0 0 0 0 0 0 1 0"/>
<feBlend mode="overlay" in2="BackgroundImageFix" result="effect1_dropShadow_0_26"/>
<feBlend mode="normal" in="SourceGraphic" in2="effect1_dropShadow_0_26" result="shape"/>
</filter>
<filter id="filter1_d_0_26" x="20.2305" y="-3.8147e-06" width="124.938" height="135.528" filterUnits="userSpaceOnUse" color-interpolation-filters="sRGB">
<feFlood flood-opacity="0" result="BackgroundImageFix"/>
<feColorMatrix in="SourceAlpha" type="matrix" values="0 0 0 0 0 0 0 0 0 0 0 0 0 0 0 0 0 0 127 0" result="hardAlpha"/>
<feOffset dx="10"/>
<feGaussianBlur stdDeviation="25"/>
<feComposite in2="hardAlpha" operator="out"/>
<feColorMatrix type="matrix" values="0 0 0 0 0 0 0 0 0 0 0 0 0 0 0 0 0 0 1 0"/>
<feBlend mode="overlay" in2="BackgroundImageFix" result="effect1_dropShadow_0_26"/>
<feBlend mode="normal" in="SourceGraphic" in2="effect1_dropShadow_0_26" result="shape"/>
</filter>
<linearGradient id="paint0_linear_0_26" x1="83.7548" y1="50" x2="83.7548" y2="85.5279" gradientUnits="userSpaceOnUse">
<stop stop-color="#334699"/>
<stop offset="1" stop-color="#111733"/>
</linearGradient>
<linearGradient id="paint1_linear_0_26" x1="52.1768" y1="85.5276" x2="52.6005" y2="50.0051" gradientUnits="userSpaceOnUse">
<stop stop-color="#538731"/>
<stop offset="0.225" stop-color="#80BC56"/>
<stop offset="0.76" stop-color="#80BC56"/>
<stop offset="0.985" stop-color="#538731"/>
</linearGradient>
<linearGradient id="paint2_linear_0_26" x1="72.6996" y1="85.5276" x2="72.6996" y2="50" gradientUnits="userSpaceOnUse">
<stop stop-color="#538731"/>
<stop offset="0.225" stop-color="#80BC56"/>
<stop offset="0.76" stop-color="#80BC56"/>
<stop offset="0.985" stop-color="#538731"/>
</linearGradient>
</defs>
</svg>
