<svg width="81" height="81" viewBox="0 0 81 81" fill="none" xmlns="http://www.w3.org/2000/svg">
<rect width="80.9992" height="81" rx="10" fill="#ECF3EC"/>
<path d="M59.0607 50.6259H51.9954C51.587 50.6259 51.1854 50.6934 50.7922 50.7896L41.9938 42.9463L43.9074 41.1813C44.3731 40.7425 44.984 40.4995 45.6269 40.4995C46.1939 40.4995 47.689 41.0446 49.0153 41.6234C49.8658 41.9946 50.7838 42.187 51.7119 42.187H59.0624C59.9939 42.187 60.7498 41.431 60.7498 40.4995C60.7498 39.5681 59.9939 38.8121 59.0624 38.8121H51.0149C50.3298 38.4847 49.0001 37.8874 47.6924 37.4976C50.0008 35.1672 51.1871 31.7248 50.3653 28.0428C49.5266 24.2899 46.4723 21.2778 42.7093 20.483C36.1536 19.0976 30.3774 24.0621 30.3774 30.3749C30.3774 33.1541 31.4996 35.6701 33.3119 37.5009C31.9991 37.8907 30.6711 38.4864 29.9876 38.8121H21.9368C21.0054 38.8121 20.2494 39.5681 20.2494 40.4995C20.2494 41.431 21.0054 42.187 21.9368 42.187H29.289C30.2239 42.187 31.1452 41.9896 32.0025 41.6166C33.2562 41.0716 34.7868 40.4995 35.4364 40.4995C36.0625 40.4995 36.6632 40.7324 37.1256 41.1543L38.0469 41.9929L34.5556 45.2126C33.6072 46.1609 33.4722 47.6172 34.2366 48.6803C34.6956 49.3181 35.4077 49.7198 36.1873 49.7805C36.2582 49.7856 36.3291 49.7889 36.4016 49.7889C37.1053 49.7889 37.7752 49.5139 38.2359 49.0515L40.9426 46.5322L47.7362 52.5884L42.4765 56.694C41.3509 57.5731 39.6432 57.5715 38.5177 56.694L32.1155 51.6975C31.2313 51.0056 30.1243 50.6259 29.0005 50.6259H21.9368C21.0054 50.6259 20.2494 51.3819 20.2494 52.3134C20.2494 53.2448 21.0054 54.0008 21.9368 54.0008H29.0022C29.3768 54.0008 29.7447 54.1274 30.04 54.3569L36.4421 59.3551C37.5964 60.2545 39.0357 60.7506 40.4971 60.7506C41.9584 60.7506 43.3995 60.2562 44.552 59.3551L50.9542 54.3586C51.2495 54.1291 51.6191 54.0025 51.992 54.0025H59.0573C59.9888 54.0025 60.7448 53.2465 60.7448 52.3151C60.7448 51.3836 59.9888 50.6276 59.0573 50.6276L59.0607 50.6259ZM35.4347 35.3832C34.7294 34.5327 35.3284 33.2469 36.4337 33.2469C36.8168 33.2469 37.2943 33.4274 37.5542 33.7093C37.7702 33.9438 38.0807 34.0906 38.4232 34.0906H42.3617C42.8308 34.0906 43.2594 33.7751 43.3506 33.3144C43.4569 32.7778 43.1042 32.2766 42.5895 32.172L37.8798 31.2287C36.0034 30.8524 34.6939 29.0671 34.969 27.113C35.2255 25.2906 36.8387 23.9642 38.6797 23.9642H39.1522V23.2893C39.1522 22.5434 39.7563 21.9393 40.5021 21.9393C41.248 21.9393 41.8521 22.5434 41.8521 23.2893V23.9642H42.5355C43.7353 23.9642 44.8102 24.511 45.5223 25.3699C46.2277 26.2204 45.6286 27.5062 44.5233 27.5062C44.1403 27.5062 43.6627 27.3256 43.4029 27.0438C43.1869 26.8093 42.8764 26.6625 42.5338 26.6625H38.6409C38.1718 26.6625 37.7432 26.9763 37.6504 27.4353C37.5424 27.9719 37.8967 28.4765 38.408 28.5794L43.1194 29.5227C44.9958 29.8973 46.307 31.686 46.0302 33.6384C45.772 35.4608 44.1605 36.7855 42.3195 36.7855H41.847V37.4604C41.847 38.2063 41.2429 38.8104 40.4971 38.8104C39.7512 38.8104 39.1471 38.2063 39.1471 37.4604V36.7855H38.4198C37.2201 36.7855 36.1451 36.237 35.433 35.3798L35.4347 35.3832Z" fill="#80BD57"/>
</svg>
