<svg width="80" height="80" viewBox="0 0 80 80" fill="none" xmlns="http://www.w3.org/2000/svg">
<rect width="80" height="80" rx="10" fill="#ECF3EC"/>
<path d="M59.995 31.6667V52.0517C59.995 53.2883 59.54 54.4767 58.7083 55.4017L54.56 60H50.0717L56.2333 53.17C56.51 52.8617 56.6633 52.465 56.6633 52.0517V31.6667C56.6633 30.7483 55.915 30 54.9967 30C54.0783 30 53.33 30.7483 53.33 31.6667V45H53.3217C53.3217 46.14 52.935 47.2817 52.1617 48.2033L47.865 52.6767L45.4633 50.3667L49.685 45.9767C50.4317 45.1917 49.83 44.17 49.575 43.885C48.965 43.2033 47.9117 43.1467 47.2317 43.7567L42.385 48.2167C42.995 49.0617 43.3317 50.0867 43.3317 51.1433V60H39.9983V51.1433C39.9983 50.6783 39.8017 50.2317 39.46 49.9183L32.75 43.7433C32.0867 43.15 31.0333 43.2033 30.4217 43.8867C29.875 44.4983 29.86 45.4333 30.3867 46.0617L34.67 50.5133L32.2683 52.8233L27.9083 48.2883C27.095 47.3233 26.6917 46.1567 26.6833 45.0017H26.665V31.6667C26.665 30.7483 25.9167 30 24.9983 30C24.08 30 23.3317 30.7483 23.3317 31.6667V52.0517C23.3317 52.465 23.485 52.8617 23.7617 53.17L29.9233 60H25.435L21.2867 55.4017C20.455 54.4767 20 53.2883 20 52.0517V31.6667C20 28.91 22.2433 26.6667 25 26.6667C26.755 26.6667 28.3 27.5767 29.1933 28.9483C29.6317 28.5667 30.205 28.3333 30.8333 28.3333H33.3333C33.3333 29.3633 33.5783 30.33 34.0017 31.195C32.725 32.1617 31.8717 33.6317 31.72 35.3133V36.6717C31.1433 36.6683 30.5667 36.7233 30 36.8383V40.285C31.665 39.7017 33.5883 40.0167 34.9933 41.275L40 45.8817L44.9917 41.2883C46.4067 40.02 48.3367 39.7033 50 40.285V36.8433C49.4333 36.73 48.855 36.675 48.2767 36.68V35.2767C48.1167 33.61 47.2667 32.1533 45.9983 31.1933C46.42 30.3283 46.6667 29.3617 46.6667 28.3317H49.1667C49.795 28.3317 50.3683 28.5633 50.8067 28.9467C51.6983 27.575 53.245 26.665 55 26.665C57.7567 26.665 60 28.9083 60 31.665L59.995 31.6667ZM42.495 33.3333H37.495C36.115 33.3333 34.995 34.4533 34.995 35.8333V37.365C35.785 37.71 36.535 38.185 37.2117 38.79L39.995 41.35L42.7283 38.8333C43.4217 38.2133 44.1883 37.7283 44.995 37.3767V35.83C44.995 34.45 43.875 33.33 42.495 33.33V33.3333ZM33.3283 26.6667C35.17 26.6667 36.6617 25.175 36.6617 23.3333C36.6617 21.4917 35.17 20 33.3283 20C31.4867 20 29.995 21.4917 29.995 23.3333C29.995 25.175 31.4867 26.6667 33.3283 26.6667ZM39.995 31.6667C41.8367 31.6667 43.3283 30.175 43.3283 28.3333C43.3283 26.4917 41.8367 25 39.995 25C38.1533 25 36.6617 26.4917 36.6617 28.3333C36.6617 30.175 38.1533 31.6667 39.995 31.6667ZM46.6617 26.6667C48.5033 26.6667 49.995 25.175 49.995 23.3333C49.995 21.4917 48.5033 20 46.6617 20C44.82 20 43.3283 21.4917 43.3283 23.3333C43.3283 25.175 44.82 26.6667 46.6617 26.6667Z" fill="#80BD57"/>
</svg>
