<svg width="314" height="147" viewBox="0 0 314 147" fill="none" xmlns="http://www.w3.org/2000/svg">
<path d="M68.7916 50H81.9916C84.0337 50 85.5024 51.9629 84.9262 53.922L72.9605 94.6054C72.5776 95.9072 71.3829 96.8011 70.0259 96.8011H62.6383C61.9702 96.8011 61.3205 96.5824 60.7885 96.1784L56.0372 92.5708C55.0257 91.8028 54.594 90.4898 54.9524 89.2714L65.857 52.1958C66.2399 50.894 67.4346 50 68.7916 50Z" fill="#334699"/>
<path d="M96.212 50H109.412C111.454 50 112.923 51.9629 112.347 53.922L100.381 94.6054C99.9981 95.9072 98.8033 96.8011 97.4464 96.8011H90.0587C89.3907 96.8011 88.741 96.5824 88.2089 96.1784L83.4576 92.5708C82.4462 91.8028 82.0145 90.4898 82.3728 89.2714L93.2774 52.1958C93.6603 50.894 94.8551 50 96.212 50Z" fill="url(#paint0_linear_243_2770)"/>
<g filter="url(#filter0_d_243_2770)">
<path fill-rule="evenodd" clip-rule="evenodd" d="M43.0609 50C41.0187 50 39.55 51.9629 40.1263 53.922L50.1545 88.018C51.686 93.2253 56.4651 96.8011 61.8929 96.8011H66.5028H70.0259C70.8057 96.8011 71.5319 96.5059 72.0813 96.0077L71.5949 94.354L59.1955 52.1958C58.8126 50.894 57.6178 50 56.2609 50H43.0609Z" fill="url(#paint1_linear_243_2770)"/>
</g>
<g filter="url(#filter1_d_243_2770)">
<path fill-rule="evenodd" clip-rule="evenodd" d="M72.9265 50H68.7916C67.9705 50 67.2087 50.3274 66.6503 50.8743L77.575 88.018C79.1065 93.2253 83.8855 96.8011 89.3134 96.8011H93.9233H97.4464C98.2262 96.8011 98.9524 96.5059 99.5018 96.0077L99.0154 94.354L86.6159 52.1958C86.2331 50.894 85.0383 50 83.6813 50H72.9265Z" fill="url(#paint2_linear_243_2770)"/>
</g>
<path d="M125.736 60.6184H133.649L138.012 77.1227H138.393L143.621 60.6184H150.89L156.168 77.1227H156.541L160.845 60.6184H168.657L160.201 86.961H152.61L147.332 70.3467H146.951L141.672 86.961H134.191L125.736 60.6184Z" fill="black"/>
<path d="M187.618 84.1693H187.186C186.355 85.176 185.364 86.0304 184.195 86.7494C183.026 87.4685 181.526 87.8238 179.696 87.8238C178.332 87.8238 177.053 87.5954 175.85 87.1555C174.647 86.7156 173.596 86.0896 172.698 85.3029C171.8 84.5161 171.097 83.5602 170.597 82.452C170.097 81.3438 169.843 80.1257 169.843 78.7976C169.843 77.4694 170.114 76.209 170.648 75.1177C171.19 74.0264 171.944 73.0875 172.91 72.2923C173.876 71.5055 175.019 70.9049 176.333 70.4904C177.646 70.0759 179.069 69.8729 180.611 69.8729C182.331 69.8729 183.754 70.0082 184.864 70.2789C185.974 70.5496 186.889 70.8288 187.609 71.1079V70.3043C187.609 68.9085 187.05 67.7496 185.94 66.8359C184.83 65.9223 183.441 65.4655 181.797 65.4655C179.357 65.4655 177.29 66.4891 175.604 68.5278L170.487 65.0341C173.291 61.5234 177.112 59.7639 181.958 59.7639C186.05 59.7639 189.177 60.7198 191.329 62.6401C193.481 64.5604 194.557 67.3943 194.557 71.1587V86.9694H187.609V84.1693H187.618ZM187.618 76.2682C186.788 75.8706 185.94 75.5576 185.059 75.3292C184.178 75.0923 183.221 74.9824 182.179 74.9824C180.493 74.9824 179.188 75.3546 178.273 76.0821C177.358 76.8181 176.9 77.7232 176.9 78.7976C176.9 79.8719 177.341 80.7348 178.222 81.3777C179.103 82.0206 180.111 82.3421 181.264 82.3421C182.196 82.3421 183.06 82.1729 183.848 81.8345C184.636 81.4961 185.313 81.0478 185.864 80.4894C186.423 79.9311 186.855 79.2882 187.16 78.5522C187.465 77.8163 187.618 77.0549 187.618 76.2682Z" fill="black"/>
<path d="M200.157 86.9694V48.4706H207.214V86.9694H200.157Z" fill="black"/>
<path d="M213.247 86.9694V48.4706H220.304V86.9694H213.247Z" fill="black"/>
<path d="M226.116 60.6183H232.742V63.7906H233.174C233.818 62.6824 234.826 61.7265 236.19 60.9398C237.554 60.153 239.24 59.7554 241.248 59.7554C242.934 59.7554 244.544 60.1023 246.069 60.8044C247.594 61.5065 248.941 62.4709 250.11 63.706C251.279 64.9411 252.203 66.4215 252.88 68.1387C253.558 69.856 253.906 71.7424 253.906 73.7812C253.906 75.8199 253.567 77.7063 252.88 79.4236C252.194 81.1409 251.271 82.6213 250.11 83.8563C248.949 85.0914 247.594 86.0642 246.069 86.7579C244.544 87.46 242.934 87.8069 241.248 87.8069C239.24 87.8069 237.545 87.4093 236.19 86.6226C234.826 85.8358 233.818 84.8884 233.174 83.7717H232.742L233.174 87.5362V98.5588H226.116V60.6183ZM239.791 81.327C240.723 81.327 241.612 81.1493 242.459 80.7856C243.307 80.4303 244.052 79.9227 244.696 79.2798C245.34 78.6369 245.865 77.8501 246.255 76.9111C246.653 75.9806 246.848 74.9401 246.848 73.7896C246.848 72.6391 246.653 71.6071 246.255 70.6681C245.857 69.7376 245.34 68.9508 244.696 68.2995C244.052 67.6481 243.307 67.149 242.459 66.7937C241.612 66.4384 240.731 66.2523 239.791 66.2523C238.85 66.2523 237.969 66.4215 237.122 66.7598C236.275 67.0982 235.529 67.5889 234.885 68.2402C234.241 68.8916 233.716 69.6783 233.326 70.6089C232.928 71.5394 232.733 72.5968 232.733 73.7812C232.733 74.9655 232.928 76.0229 233.326 76.9534C233.724 77.884 234.241 78.6707 234.885 79.3221C235.529 79.9735 236.275 80.4641 237.122 80.8025C237.969 81.1409 238.85 81.31 239.791 81.31V81.327Z" fill="black"/>
<path d="M270.918 59.7639C272.968 59.7639 274.841 60.1107 276.544 60.8128C278.247 61.515 279.721 62.4793 280.958 63.7144C282.195 64.9495 283.169 66.4299 283.864 68.1472C284.567 69.8644 284.914 71.7509 284.914 73.7896C284.914 75.8283 284.567 77.7148 283.864 79.432C283.161 81.1493 282.195 82.6297 280.958 83.8648C279.721 85.0998 278.247 86.0727 276.544 86.7663C274.841 87.4685 272.96 87.8153 270.918 87.8153C268.876 87.8153 266.995 87.4685 265.292 86.7663C263.589 86.0642 262.115 85.0998 260.878 83.8648C259.641 82.6297 258.667 81.1493 257.972 79.432C257.269 77.7148 256.922 75.8283 256.922 73.7896C256.922 71.7509 257.269 69.8644 257.972 68.1472C258.675 66.4299 259.641 64.9495 260.878 63.7144C262.115 62.4793 263.589 61.5065 265.292 60.8128C266.995 60.1107 268.876 59.7639 270.918 59.7639ZM270.918 81.3269C271.816 81.3269 272.689 81.1577 273.528 80.8194C274.375 80.481 275.12 79.9903 275.764 79.339C276.408 78.6876 276.925 77.9093 277.298 76.9703C277.679 76.0398 277.865 74.9824 277.865 73.798C277.865 72.6137 277.679 71.5563 277.298 70.6258C276.925 69.6952 276.408 68.9085 275.764 68.2571C275.12 67.6057 274.375 67.1236 273.528 66.7767C272.68 66.4383 271.816 66.2692 270.918 66.2692C270.02 66.2692 269.105 66.4383 268.283 66.7767C267.453 67.1151 266.724 67.6057 266.072 68.2571C265.419 68.9085 264.911 69.6952 264.538 70.6258C264.157 71.5563 263.971 72.6137 263.971 73.798C263.971 74.9824 264.157 76.0398 264.538 76.9703C264.92 77.9009 265.428 78.6876 266.072 79.339C266.716 79.9903 267.453 80.481 268.283 80.8194C269.105 81.1577 269.986 81.3269 270.918 81.3269Z" fill="black"/>
<path d="M295.53 64.0613H295.962C296.784 62.7332 297.903 61.6842 299.3 60.9144C300.698 60.1446 302.3 59.7554 304.096 59.7554C305.748 59.7554 307.205 60.0261 308.459 60.5591C309.713 61.1005 310.747 61.8618 311.551 62.8431C312.356 63.8329 312.966 65.0087 313.382 66.3876C313.797 67.7665 314 69.2977 314 70.9811V86.9525H306.943V71.844C306.943 69.9406 306.519 68.5363 305.68 67.6227C304.833 66.7091 303.604 66.2523 301.995 66.2523C301.029 66.2523 300.173 66.4553 299.436 66.8698C298.699 67.2843 298.072 67.8342 297.555 68.5363C297.038 69.2385 296.64 70.059 296.369 71.0065C296.098 71.9539 295.962 72.9691 295.962 74.0434V86.944H288.905V60.6014H295.53V64.0444V64.0613Z" fill="black"/>
<defs>
<filter id="filter0_d_243_2770" x="-2.86102e-06" y="-3.8147e-06" width="132.081" height="146.801" filterUnits="userSpaceOnUse" color-interpolation-filters="sRGB">
<feFlood flood-opacity="0" result="BackgroundImageFix"/>
<feColorMatrix in="SourceAlpha" type="matrix" values="0 0 0 0 0 0 0 0 0 0 0 0 0 0 0 0 0 0 127 0" result="hardAlpha"/>
<feOffset dx="10"/>
<feGaussianBlur stdDeviation="25"/>
<feComposite in2="hardAlpha" operator="out"/>
<feColorMatrix type="matrix" values="0 0 0 0 0 0 0 0 0 0 0 0 0 0 0 0 0 0 1 0"/>
<feBlend mode="overlay" in2="BackgroundImageFix" result="effect1_dropShadow_243_2770"/>
<feBlend mode="normal" in="SourceGraphic" in2="effect1_dropShadow_243_2770" result="shape"/>
</filter>
<filter id="filter1_d_243_2770" x="26.6503" y="-3.8147e-06" width="132.851" height="146.801" filterUnits="userSpaceOnUse" color-interpolation-filters="sRGB">
<feFlood flood-opacity="0" result="BackgroundImageFix"/>
<feColorMatrix in="SourceAlpha" type="matrix" values="0 0 0 0 0 0 0 0 0 0 0 0 0 0 0 0 0 0 127 0" result="hardAlpha"/>
<feOffset dx="10"/>
<feGaussianBlur stdDeviation="25"/>
<feComposite in2="hardAlpha" operator="out"/>
<feColorMatrix type="matrix" values="0 0 0 0 0 0 0 0 0 0 0 0 0 0 0 0 0 0 1 0"/>
<feBlend mode="overlay" in2="BackgroundImageFix" result="effect1_dropShadow_243_2770"/>
<feBlend mode="normal" in="SourceGraphic" in2="effect1_dropShadow_243_2770" result="shape"/>
</filter>
<linearGradient id="paint0_linear_243_2770" x1="97.6389" y1="50" x2="97.6389" y2="96.8011" gradientUnits="userSpaceOnUse">
<stop stop-color="#334699"/>
<stop offset="1" stop-color="#111733"/>
</linearGradient>
<linearGradient id="paint1_linear_243_2770" x1="56.0407" y1="96.8008" x2="56.5987" y2="50.0067" gradientUnits="userSpaceOnUse">
<stop stop-color="#538731"/>
<stop offset="0.225" stop-color="#80BC56"/>
<stop offset="0.76" stop-color="#80BC56"/>
<stop offset="0.985" stop-color="#538731"/>
</linearGradient>
<linearGradient id="paint2_linear_243_2770" x1="83.0761" y1="96.8008" x2="83.0761" y2="50" gradientUnits="userSpaceOnUse">
<stop stop-color="#538731"/>
<stop offset="0.225" stop-color="#80BC56"/>
<stop offset="0.76" stop-color="#80BC56"/>
<stop offset="0.985" stop-color="#538731"/>
</linearGradient>
</defs>
</svg>
