<svg width="40" height="40" viewBox="0 0 40 40" fill="none" xmlns="http://www.w3.org/2000/svg">
<g clip-path="url(#clip0_252_2792)">
<path d="M2.86167 24.5L9.75 40H13.8433C14.607 39.9996 15.3586 39.8084 16.0297 39.444C16.7008 39.0795 17.2703 38.5532 17.6865 37.9129C18.1027 37.2725 18.3524 36.5384 18.413 35.7771C18.4735 35.0158 18.343 34.2514 18.0333 33.5533L14.2317 25H18.3333C20.5427 25.0026 22.6607 25.8815 24.223 27.4437C25.7852 29.0059 26.664 31.124 26.6667 33.3333H30V0H26.6667C26.664 2.20933 25.7852 4.3274 24.223 5.88963C22.6607 7.45186 20.5427 8.33069 18.3333 8.33333H5C3.67392 8.33333 2.40215 8.86012 1.46447 9.7978C0.526784 10.7355 0 12.0073 0 13.3333L0 20C0.00371832 20.9437 0.274421 21.867 0.780817 22.6634C1.28721 23.4597 2.00863 24.0964 2.86167 24.5ZM14.9867 34.905C15.0717 35.0956 15.1077 35.3045 15.0915 35.5125C15.0752 35.7206 15.0072 35.9213 14.8935 36.0964C14.7799 36.2715 14.6243 36.4154 14.4409 36.515C14.2575 36.6146 14.0521 36.6667 13.8433 36.6667H11.9167L6.73167 25H10.5833L14.9867 34.905ZM3.33333 13.3333C3.33333 12.8913 3.50893 12.4674 3.82149 12.1548C4.13405 11.8423 4.55797 11.6667 5 11.6667H18.3333C19.887 11.667 21.425 11.3559 22.8564 10.7515C24.2877 10.1472 25.5833 9.26204 26.6667 8.14833V25.185C25.5833 24.0713 24.2877 23.1861 22.8564 22.5818C21.425 21.9775 19.887 21.6663 18.3333 21.6667H5C4.55797 21.6667 4.13405 21.4911 3.82149 21.1785C3.50893 20.8659 3.33333 20.442 3.33333 20V13.3333ZM37.155 26.1783L33.3417 22.365L35.6983 20.0083L39.5117 23.8217L37.155 26.1783ZM35.7617 13.2617L33.405 10.905L37.155 7.155L39.5117 9.51167L35.7617 13.2617ZM35 15H40V18.3333H35V15Z" fill="white"/>
</g>
<defs>
<clipPath id="clip0_252_2792">
<rect width="40" height="40" fill="white"/>
</clipPath>
</defs>
</svg>
