<svg width="80" height="80" viewBox="0 0 80 80" fill="none" xmlns="http://www.w3.org/2000/svg">
<rect width="80" height="80" rx="10" fill="#ECF3EC"/>
<path d="M60 44.5517C60 45.7017 59.0667 46.635 57.9167 46.635C56.7667 46.635 55.8333 45.7017 55.8333 44.5517C55.8333 43.4017 56.7667 42.4683 57.9167 42.4683C59.0667 42.4683 60 43.4017 60 44.5517ZM52.5 35.385C52.5 34.235 51.5667 33.3017 50.4167 33.3017C49.2667 33.3017 48.3333 34.235 48.3333 35.385C48.3333 36.535 49.2667 37.4683 50.4167 37.4683C51.5667 37.4683 52.5 36.535 52.5 35.385ZM51.2967 46.635L60 33.3017H56.815L48.1117 46.635H51.2967ZM31.0267 46.6983L36.6683 35.27V33.3317H28.335V35.9983H33.325L28.6417 45.5067L31.0267 46.6983ZM42.5017 33.3333C44.8033 33.3333 46.6683 35.1983 46.6683 37.5V42.5C46.6683 44.8017 44.8033 46.6667 42.5017 46.6667C40.2 46.6667 38.335 44.8017 38.335 42.5V37.5C38.335 35.1983 40.2 33.3333 42.5017 33.3333ZM42.5017 36C41.675 36 41.0017 36.6733 41.0017 37.5V42.5C41.0017 43.3267 41.675 44 42.5017 44C43.3283 44 44.0017 43.3267 44.0017 42.5V37.5C44.0017 36.6733 43.3283 36 42.5017 36ZM40.0017 56.6667C30.8117 56.6667 23.335 49.1883 23.335 40C23.335 30.8117 30.8083 23.3333 39.9983 23.3333C45.4483 23.3333 50.2817 25.975 53.3233 30.0317H57.3117C53.8533 24.0467 47.3967 20 40 20C28.9717 20 20 28.9717 20 40C20 51.0283 28.9717 59.9983 39.9983 60C39.9983 60 39.9983 60 40 60C47.37 60 53.805 55.9817 57.275 50.0317H53.2783C50.2333 54.0533 45.4217 56.6667 40 56.6667H40.0017Z" fill="#80BD57"/>
</svg>
