<svg viewBox="0 0 40 40">
<g clip-path="url(#clip0_265_4480)">
         <path d="M35.8333 26.6666H29.1667C28.8817 26.6666 28.6033 26.695 28.3333 26.75V19.1666C28.3333 16.87 26.465 15 24.1667 15H15.8333C13.535 15 11.6667 16.87 11.6667 19.1666V21.75C11.3967 21.695 11.1183 21.6666 10.8333 21.6666H4.16667C1.86833 21.6666 0 23.5366 0 25.8333V40H40V30.8333C40 28.5366 38.1317 26.6666 35.8333 26.6666ZM15 19.1666C15 18.7066 15.375 18.3333 15.8333 18.3333H24.1667C24.625 18.3333 25 18.7066 25 19.1666V36.6666H15V19.1666ZM3.33333 25.8333C3.33333 25.3733 3.70833 25 4.16667 25H10.8333C11.2917 25 11.6667 25.3733 11.6667 25.8333V36.6666H3.33333V25.8333ZM36.6667 36.6666H28.3333V30.8333C28.3333 30.3733 28.7083 30 29.1667 30H35.8333C36.2917 30 36.6667 30.3733 36.6667 30.8333V36.6666ZM17.0217 8.07831L13.335 6.02665V5.00165H18.1667L19.4733 0.00164795H20.5533L21.86 5.00165H26.665V6.01998L23.0033 8.14165L24.4767 12.6183L23.6367 13.2L20.015 10.4L16.3767 13.2116L15.5767 12.6083L17.025 8.07998L17.0217 8.07831Z" fill="#80BD57"/>
         </g>
         <defs>
         <clipPath id="clip0_265_4480">
         <rect width="40" height="40" fill="white"/>
         </clipPath>
         </defs>
</svg>