<svg width="80" height="80" viewBox="0 0 80 80" fill="none" xmlns="http://www.w3.org/2000/svg">
<rect width="80" height="80" rx="10" fill="#ECF3EC"/>
<path d="M60 36.6667L56.3333 20H23.6667L20.04 36.305L20 38.3333C20.006 39.9421 20.5986 41.4935 21.6667 42.6967V55C21.6667 56.3261 22.1935 57.5979 23.1311 58.5355C24.0688 59.4732 25.3406 60 26.6667 60H53.3333C54.6594 60 55.9312 59.4732 56.8689 58.5355C57.8065 57.5979 58.3333 56.3261 58.3333 55V42.6967C59.4014 41.4935 59.994 39.9421 60 38.3333V36.6667ZM23.3333 36.8483L26.3333 23.3333H31.6667V30H35V23.3333H45V30H48.3333V23.3333H53.6667L56.6667 36.8483V38.3333C56.6667 39.2174 56.3155 40.0652 55.6904 40.6904C55.0652 41.3155 54.2174 41.6667 53.3333 41.6667H51.6667C50.7826 41.6667 49.9348 41.3155 49.3096 40.6904C48.6845 40.0652 48.3333 39.2174 48.3333 38.3333H45C45 39.2174 44.6488 40.0652 44.0237 40.6904C43.3986 41.3155 42.5507 41.6667 41.6667 41.6667H38.3333C37.4493 41.6667 36.6014 41.3155 35.9763 40.6904C35.3512 40.0652 35 39.2174 35 38.3333H31.6667C31.6667 39.2174 31.3155 40.0652 30.6904 40.6904C30.0652 41.3155 29.2174 41.6667 28.3333 41.6667H26.6667C25.7826 41.6667 24.9348 41.3155 24.3096 40.6904C23.6845 40.0652 23.3333 39.2174 23.3333 38.3333V36.8483ZM53.3333 56.6667H26.6667C26.2246 56.6667 25.8007 56.4911 25.4882 56.1785C25.1756 55.866 25 55.442 25 55V44.7633C25.5431 44.9134 26.1033 44.993 26.6667 45H28.3333C29.2832 44.9969 30.2212 44.7897 31.0839 44.3923C31.9466 43.9948 32.7137 43.4166 33.3333 42.6967C33.9529 43.4166 34.7201 43.9948 35.5828 44.3923C36.4455 44.7897 37.3835 44.9969 38.3333 45H41.6667C42.613 45.0005 43.5486 44.799 44.4108 44.409C45.2731 44.019 46.0422 43.4494 46.6667 42.7383C47.2912 43.4494 48.0602 44.019 48.9225 44.409C49.7847 44.799 50.7203 45.0005 51.6667 45H53.3333C53.8967 44.993 54.4569 44.9134 55 44.7633V55C55 55.442 54.8244 55.866 54.5118 56.1785C54.1993 56.4911 53.7754 56.6667 53.3333 56.6667Z" fill="#80BD57"/>
</svg>
