<svg width="36" height="36" viewBox="0 0 36 36" fill="none" xmlns="http://www.w3.org/2000/svg">
<g clip-path="url(#clip0_265_4448)">
<path d="M31.3576 0H4.65011C3.40794 0.00990934 2.2205 0.51247 1.34862 1.39729C0.476736 2.28211 -0.00828016 3.47682 0.000106993 4.719V12H3.00011V4.719C2.99553 4.49778 3.03458 4.27782 3.11503 4.07169C3.19548 3.86556 3.31576 3.67731 3.46898 3.51767C3.62221 3.35804 3.80539 3.23016 4.00805 3.14133C4.21071 3.05251 4.42888 3.00448 4.65011 3H31.3651C31.8093 3.01296 32.2303 3.20089 32.5365 3.52286C32.8428 3.84483 33.0094 4.27475 33.0001 4.719V31.281C33.0094 31.7265 32.8417 32.1575 32.5339 32.4797C32.226 32.8019 31.8031 32.989 31.3576 33H4.65011C4.42888 32.9955 4.21071 32.9475 4.00805 32.8587C3.80539 32.7698 3.62221 32.642 3.46898 32.4823C3.31576 32.3227 3.19548 32.1344 3.11503 31.9283C3.03458 31.7222 2.99553 31.5022 3.00011 31.281V24H0.000106993V31.281C-0.00828016 32.5232 0.476736 33.7179 1.34862 34.6027C2.2205 35.4875 3.40794 35.9901 4.65011 36H31.3651C32.6047 35.9861 33.7883 35.4818 34.6569 34.5975C35.5256 33.7131 36.0085 32.5206 36.0001 31.281V4.719C36.0085 3.47811 35.5245 2.28452 34.6543 1.39992C33.784 0.515314 32.5985 0.0118844 31.3576 0Z" fill="#334699"/>
<path d="M4.5 19.5001H25.629L19.179 25.9501L21.3 28.0771L28.7235 20.6521C29.0718 20.3039 29.3481 19.8904 29.5367 19.4354C29.7252 18.9804 29.8222 18.4926 29.8222 18.0001C29.8222 17.5076 29.7252 17.0198 29.5367 16.5648C29.3481 16.1098 29.0718 15.6963 28.7235 15.3481L21.3 7.9231L19.1745 10.0501L25.6245 16.5001H4.5V19.5001Z" fill="#334699"/>
</g>
<defs>
<clipPath id="clip0_265_4448">
<rect width="36" height="36" fill="white"/>
</clipPath>
</defs>
</svg>
