<svg width="36" height="36" viewBox="0 0 36 36" fill="none" xmlns="http://www.w3.org/2000/svg">
<path d="M15.0042 18.0461C15.0042 16.3878 16.3477 15.0432 18.0055 15.0432C19.6633 15.0432 21.0076 16.3878 21.0076 18.0461C21.0076 19.7044 19.6633 21.049 18.0055 21.049C16.3477 21.049 15.0042 19.7044 15.0042 18.0461ZM13.3814 18.0461C13.3814 20.6008 15.4516 22.6716 18.0055 22.6716C20.5595 22.6716 22.6297 20.6008 22.6297 18.0461C22.6297 15.4914 20.5595 13.4206 18.0055 13.4206C15.4516 13.4206 13.3814 15.4914 13.3814 18.0461ZM21.7321 13.2372C21.732 13.451 21.7953 13.66 21.914 13.8378C22.0327 14.0156 22.2014 14.1542 22.3988 14.2361C22.5962 14.318 22.8135 14.3395 23.0231 14.2979C23.2328 14.2563 23.4254 14.1534 23.5766 14.0023C23.7278 13.8512 23.8308 13.6586 23.8725 13.4489C23.9143 13.2393 23.893 13.0219 23.8113 12.8243C23.7296 12.6268 23.5911 12.4579 23.4135 12.3391C23.2358 12.2202 23.0269 12.1567 22.8132 12.1567H22.8127C22.5263 12.1568 22.2515 12.2707 22.0489 12.4733C21.8463 12.6759 21.7323 12.9506 21.7321 13.2372ZM14.3673 25.3784C13.4893 25.3384 13.0121 25.1921 12.695 25.0685C12.2746 24.9048 11.9746 24.7098 11.6592 24.3947C11.3438 24.0796 11.1485 23.7799 10.9856 23.3593C10.8619 23.0422 10.7157 22.5647 10.6758 21.6865C10.6321 20.737 10.6234 20.4517 10.6234 18.0462C10.6234 15.6406 10.6328 15.3562 10.6758 14.4058C10.7158 13.5276 10.8631 13.051 10.9856 12.733C11.1492 12.3125 11.3442 12.0124 11.6592 11.6969C11.9741 11.3814 12.2738 11.1861 12.695 11.0231C13.012 10.8994 13.4893 10.7531 14.3673 10.7132C15.3166 10.6695 15.6017 10.6608 18.0055 10.6608C20.4093 10.6608 20.6948 10.6703 21.6448 10.7132C22.5228 10.7532 22.9992 10.9006 23.3171 11.0231C23.7376 11.1861 24.0376 11.3818 24.353 11.6969C24.6684 12.012 24.8629 12.3125 25.0266 12.733C25.1502 13.0501 25.2964 13.5276 25.3363 14.4058C25.38 15.3562 25.3887 15.6406 25.3887 18.0462C25.3887 20.4517 25.38 20.7362 25.3363 21.6865C25.2964 22.5647 25.1494 23.0421 25.0266 23.3593C24.8629 23.7799 24.6679 24.0799 24.353 24.3947C24.038 24.7095 23.7376 24.9048 23.3171 25.0685C23.0001 25.1922 22.5228 25.3385 21.6448 25.3784C20.6955 25.4221 20.4104 25.4308 18.0055 25.4308C15.6006 25.4308 15.3163 25.4221 14.3673 25.3784ZM14.2928 9.09264C13.3341 9.13631 12.679 9.28836 12.1069 9.51104C11.5144 9.741 11.0129 10.0495 10.5117 10.5501C10.0105 11.0506 9.70283 11.5531 9.47294 12.1458C9.25033 12.7184 9.09832 13.3733 9.05466 14.3323C9.01028 15.2927 9.00012 15.5998 9.00012 18.0461C9.00012 20.4924 9.01028 20.7994 9.05466 21.7599C9.09832 22.7189 9.25033 23.3738 9.47294 23.9464C9.70283 24.5387 10.0105 25.0418 10.5117 25.5421C11.0128 26.0425 11.5144 26.3505 12.1069 26.5811C12.6801 26.8038 13.3341 26.9559 14.2928 26.9995C15.2535 27.0432 15.5599 27.0541 18.0055 27.0541C20.4511 27.0541 20.7581 27.0439 21.7183 26.9995C22.677 26.9559 23.3317 26.8038 23.9041 26.5811C24.4963 26.3505 24.9982 26.0427 25.4994 25.5421C26.0006 25.0416 26.3076 24.5387 26.5381 23.9464C26.7607 23.3738 26.9134 22.7189 26.9564 21.7599C27 20.7987 27.0102 20.4924 27.0102 18.0461C27.0102 15.5998 27 15.2927 26.9564 14.3323C26.9127 13.3732 26.7607 12.718 26.5381 12.1458C26.3076 11.5535 25.9998 11.0514 25.4994 10.5501C24.999 10.0487 24.4963 9.741 23.9049 9.51104C23.3317 9.28836 22.6769 9.13559 21.719 9.09264C20.7588 9.04897 20.4518 9.03809 18.0062 9.03809C15.5607 9.03809 15.2535 9.04825 14.2928 9.09264Z" fill="#D7D7D7"/>
</svg>
