<svg width="36" height="36" viewBox="0 0 36 36" fill="none" xmlns="http://www.w3.org/2000/svg">
<g clip-path="url(#clip0_265_4438)">
<path d="M27 0H21V1.5C21 2.29565 20.6839 3.05871 20.1213 3.62132C19.5587 4.18393 18.7956 4.5 18 4.5C17.2044 4.5 16.4413 4.18393 15.8787 3.62132C15.3161 3.05871 15 2.29565 15 1.5V0H9C7.80653 0 6.66193 0.474106 5.81802 1.31802C4.97411 2.16193 4.5 3.30653 4.5 4.5V36H15V34.5C15 33.7043 15.3161 32.9413 15.8787 32.3787C16.4413 31.8161 17.2044 31.5 18 31.5C18.7956 31.5 19.5587 31.8161 20.1213 32.3787C20.6839 32.9413 21 33.7043 21 34.5V36H31.5V4.5C31.5 3.30653 31.0259 2.16193 30.182 1.31802C29.3381 0.474106 28.1935 0 27 0ZM23.811 33C23.4795 31.7107 22.7287 30.5683 21.6767 29.7525C20.6246 28.9368 19.3312 28.4941 18 28.4941C16.6688 28.4941 15.3754 28.9368 14.3233 29.7525C13.2713 30.5683 12.5205 31.7107 12.189 33H7.5V25.5H12V22.5H7.5V4.5C7.5 4.10218 7.65804 3.72064 7.93934 3.43934C8.22064 3.15804 8.60218 3 9 3H12.189C12.5205 4.28929 13.2713 5.43172 14.3233 6.24746C15.3754 7.0632 16.6688 7.50592 18 7.50592C19.3312 7.50592 20.6246 7.0632 21.6767 6.24746C22.7287 5.43172 23.4795 4.28929 23.811 3H27C27.3978 3 27.7794 3.15804 28.0607 3.43934C28.342 3.72064 28.5 4.10218 28.5 4.5V22.5H24V25.5H28.5V33H23.811Z" fill="#334699"/>
<path d="M21 22.5H15V25.5H21V22.5Z" fill="#334699"/>
</g>
<defs>
<clipPath id="clip0_265_4438">
<rect width="36" height="36" fill="white"/>
</clipPath>
</defs>
</svg>
