<svg viewBox="0 0 40 40">
<path d="M35 15H8.33333C5.57667 15 3.33333 17.2433 3.33333 20V36.6667H16.4933L19.4517 39.1583C20.0883 39.7233 20.8867 40.0033 21.68 40.0033C22.46 40.0033 23.2317 39.7333 23.8333 39.1967L26.895 36.665H39.9983V19.9983C39.9983 17.2417 37.755 14.9983 34.9983 14.9983L35 15ZM36.6667 33.3333H25.6983L21.635 36.6383L17.7117 33.3333H6.66667V25.77L9.43333 27.31L8.34667 30.7083L8.94667 31.1617L11.6767 29.0517L14.3933 31.1533L15.0233 30.7167L13.9183 27.3583L16.665 25.7667V25.7717L19.4317 27.3117L18.345 30.71L18.945 31.1633L21.675 29.0533L24.3917 31.155L25.0217 30.7183L23.9167 27.36L26.6633 25.7683V25.7733L29.43 27.3133L28.3433 30.7117L28.9433 31.165L31.6733 29.055L34.39 31.1567L35.02 30.72L33.915 27.3617L36.6617 25.77V33.34L36.6667 33.3333ZM36.6667 25H33.0617L32.0817 21.2483H31.2717L30.2917 25H23.0617L22.0817 21.2483H21.2717L20.2917 25H13.0617L12.0817 21.2483H11.2717L10.2917 25H6.66667V20C6.66667 19.0817 7.41333 18.3333 8.33333 18.3333H35C35.92 18.3333 36.6667 19.0817 36.6667 20V25ZM6.66667 11.6667V8.33333H20V11.6667H6.66667ZM23.3333 11.6667V8.33333H30V11.6667H23.3333ZM3.33333 13.3767C1.32167 14.9 0 17.29 0 20V5C0 2.24333 2.24333 0 5 0H31.6667C34.4233 0 36.6667 2.24333 36.6667 5V11.6667H33.3333V5C33.3333 4.08167 32.5867 3.33333 31.6667 3.33333H5C4.08 3.33333 3.33333 4.08167 3.33333 5V13.3767Z" fill="#80BD57"/>
</svg>